<svg width="1185" height="727" viewBox="0 0 1185 727" fill="none" xmlns="http://www.w3.org/2000/svg">
<rect x="408" y="223" width="369" height="503.182" rx="35.9416" fill="#231844"/>
<path d="M498.679 522H486.366V488.321C486.366 487.396 486.366 486.255 486.366 484.896C486.42 483.536 486.474 482.123 486.529 480.655C486.583 479.187 486.637 477.882 486.692 476.741C486.42 477.067 485.822 477.665 484.898 478.535C484.028 479.35 483.212 480.084 482.451 480.737L475.764 486.119L469.811 478.698L488.567 463.775H498.679V522ZM555.296 492.887C555.296 497.563 554.915 501.749 554.154 505.446C553.447 509.143 552.278 512.296 550.647 514.905C549.071 517.46 546.978 519.418 544.368 520.777C541.813 522.136 538.66 522.815 534.908 522.815C530.233 522.815 526.4 521.619 523.41 519.227C520.42 516.835 518.191 513.41 516.723 508.952C515.31 504.494 514.603 499.139 514.603 492.887C514.603 486.581 515.255 481.199 516.56 476.741C517.865 472.283 520.012 468.858 523.002 466.466C525.993 464.074 529.961 462.878 534.908 462.878C539.584 462.878 543.417 464.074 546.407 466.466C549.397 468.803 551.626 472.228 553.094 476.741C554.562 481.199 555.296 486.581 555.296 492.887ZM526.835 492.887C526.835 497.291 527.08 500.988 527.569 503.978C528.058 506.914 528.874 509.143 530.016 510.665C531.212 512.133 532.843 512.867 534.908 512.867C536.974 512.867 538.578 512.133 539.72 510.665C540.916 509.197 541.759 506.995 542.248 504.059C542.791 501.069 543.063 497.345 543.063 492.887C543.063 488.429 542.791 484.732 542.248 481.797C541.759 478.807 540.916 476.578 539.72 475.11C538.578 473.588 536.974 472.826 534.908 472.826C532.843 472.826 531.212 473.588 530.016 475.11C528.874 476.578 528.058 478.807 527.569 481.797C527.08 484.732 526.835 488.429 526.835 492.887ZM601.963 492.887C601.963 497.563 601.582 501.749 600.821 505.446C600.114 509.143 598.945 512.296 597.315 514.905C595.738 517.46 593.645 519.418 591.035 520.777C588.48 522.136 585.327 522.815 581.576 522.815C576.9 522.815 573.068 521.619 570.077 519.227C567.087 516.835 564.858 513.41 563.39 508.952C561.977 504.494 561.27 499.139 561.27 492.887C561.27 486.581 561.923 481.199 563.227 476.741C564.532 472.283 566.68 468.858 569.67 466.466C572.66 464.074 576.628 462.878 581.576 462.878C586.251 462.878 590.084 464.074 593.074 466.466C596.064 468.803 598.293 472.228 599.761 476.741C601.229 481.199 601.963 486.581 601.963 492.887ZM573.502 492.887C573.502 497.291 573.747 500.988 574.236 503.978C574.726 506.914 575.541 509.143 576.683 510.665C577.879 512.133 579.51 512.867 581.576 512.867C583.642 512.867 585.245 512.133 586.387 510.665C587.583 509.197 588.426 506.995 588.915 504.059C589.459 501.069 589.731 497.345 589.731 492.887C589.731 488.429 589.459 484.732 588.915 481.797C588.426 478.807 587.583 476.578 586.387 475.11C585.245 473.588 583.642 472.826 581.576 472.826C579.51 472.826 577.879 473.588 576.683 475.11C575.541 476.578 574.726 478.807 574.236 481.797C573.747 484.732 573.502 488.429 573.502 492.887ZM655.95 522H643.636V474.05H627.816V463.775H671.771V474.05H655.95V522ZM680.749 522V463.775H693.063V511.806H716.712V522H680.749Z" fill="white"/>
<rect x="53" y="283" width="308" height="420" rx="30" fill="#291B50" fill-opacity="0.9"/>
<path d="M141.344 487.077C144.283 487.077 146.905 487.642 149.211 488.772C151.516 489.902 153.325 491.553 154.636 493.723C155.992 495.893 156.67 498.583 156.67 501.793C156.67 505.274 155.947 508.28 154.5 510.812C153.053 513.343 150.883 515.287 147.99 516.644C145.142 518 141.593 518.678 137.343 518.678C134.811 518.678 132.415 518.452 130.155 518C127.94 517.548 125.996 516.892 124.323 516.033V507.218C125.996 508.077 128.007 508.823 130.358 509.455C132.709 510.043 134.924 510.337 137.004 510.337C139.038 510.337 140.734 510.066 142.09 509.523C143.492 508.981 144.554 508.144 145.277 507.014C146.001 505.884 146.362 504.437 146.362 502.674C146.362 500.278 145.571 498.47 143.989 497.249C142.407 495.983 139.965 495.35 136.665 495.35C135.399 495.35 134.088 495.486 132.732 495.757C131.376 495.983 130.245 496.209 129.341 496.435L125.272 494.265L127.103 469.581H153.347V478.261H136.055L135.173 487.755C135.942 487.619 136.755 487.484 137.614 487.348C138.519 487.167 139.762 487.077 141.344 487.077ZM196.088 493.79C196.088 497.678 195.771 501.16 195.138 504.234C194.551 507.308 193.579 509.93 192.222 512.1C190.911 514.225 189.171 515.853 187.001 516.983C184.876 518.113 182.254 518.678 179.134 518.678C175.246 518.678 172.059 517.684 169.573 515.694C167.086 513.705 165.233 510.857 164.012 507.15C162.837 503.443 162.249 498.99 162.249 493.79C162.249 488.546 162.791 484.071 163.876 480.363C164.961 476.656 166.747 473.808 169.234 471.819C171.72 469.83 175.02 468.835 179.134 468.835C183.022 468.835 186.21 469.83 188.696 471.819C191.183 473.763 193.036 476.611 194.257 480.363C195.478 484.071 196.088 488.546 196.088 493.79ZM172.421 493.79C172.421 497.452 172.624 500.527 173.031 503.013C173.438 505.454 174.116 507.308 175.066 508.574C176.06 509.795 177.416 510.405 179.134 510.405C180.852 510.405 182.186 509.795 183.135 508.574C184.13 507.353 184.831 505.522 185.238 503.081C185.69 500.594 185.916 497.498 185.916 493.79C185.916 490.083 185.69 487.009 185.238 484.568C184.831 482.081 184.13 480.228 183.135 479.007C182.186 477.741 180.852 477.108 179.134 477.108C177.416 477.108 176.06 477.741 175.066 479.007C174.116 480.228 173.438 482.081 173.031 484.568C172.624 487.009 172.421 490.083 172.421 493.79ZM240.983 518H230.743V478.125H217.587V469.581H254.139V478.125H240.983V518ZM261.605 518V469.581H271.845V509.523H291.511V518H261.605Z" fill="white"/>
<rect x="824" y="283" width="308" height="420" rx="30" fill="#291B50" fill-opacity="0.9"/>
<path d="M899.527 518L917.701 478.193H893.831V469.581H928.552V476.023L910.242 518H899.527ZM951.152 487.077C954.09 487.077 956.712 487.642 959.018 488.772C961.324 489.902 963.132 491.553 964.443 493.723C965.799 495.893 966.478 498.583 966.478 501.793C966.478 505.274 965.754 508.28 964.308 510.812C962.861 513.343 960.691 515.287 957.797 516.644C954.949 518 951.4 518.678 947.151 518.678C944.619 518.678 942.223 518.452 939.962 518C937.747 517.548 935.803 516.892 934.13 516.033V507.218C935.803 508.077 937.815 508.823 940.166 509.455C942.517 510.043 944.732 510.337 946.812 510.337C948.846 510.337 950.541 510.066 951.898 509.523C953.299 508.981 954.361 508.144 955.085 507.014C955.808 505.884 956.17 504.437 956.17 502.674C956.17 500.278 955.379 498.47 953.796 497.249C952.214 495.983 949.773 495.35 946.472 495.35C945.207 495.35 943.896 495.486 942.539 495.757C941.183 495.983 940.053 496.209 939.149 496.435L935.08 494.265L936.911 469.581H963.155V478.261H945.862L944.981 487.755C945.749 487.619 946.563 487.484 947.422 487.348C948.326 487.167 949.569 487.077 951.152 487.077ZM1011.98 518H1001.74V478.125H988.587V469.581H1025.14V478.125H1011.98V518ZM1032.6 518V469.581H1042.84V509.523H1062.51V518H1032.6Z" fill="white"/>
<path d="M22.9825 22.0292C21.3061 22.0292 19.8051 22.3606 18.4796 23.0233C17.193 23.6861 16.1014 24.6413 15.2047 25.8888C14.308 27.0974 13.6258 28.5789 13.1579 30.3333C12.7291 32.0877 12.5146 34.0565 12.5146 36.2397C12.5146 39.2027 12.8655 41.7368 13.5673 43.8421C14.308 45.9084 15.4581 47.4873 17.0176 48.5789C18.577 49.6705 20.5653 50.2164 22.9825 50.2164C24.6979 50.2164 26.3938 50.0214 28.0702 49.6316C29.7856 49.2417 31.6375 48.6959 33.6258 47.9941V55.421C31.7934 56.1618 29.9806 56.7076 28.1872 57.0585C26.3938 57.4094 24.386 57.5848 22.1638 57.5848C17.8753 57.5848 14.3275 56.7076 11.5205 54.9532C8.75245 53.1598 6.70567 50.6647 5.38013 47.4678C4.05459 44.2319 3.39182 40.4698 3.39182 36.1812C3.39182 33.0233 3.82067 30.1383 4.67837 27.5263C5.53607 24.8752 6.78364 22.5945 8.42107 20.6841C10.0975 18.7738 12.1443 17.2923 14.5614 16.2397C17.0176 15.187 19.8246 14.6607 22.9825 14.6607C25.0488 14.6607 27.1151 14.9336 29.1813 15.4794C31.2866 15.9863 33.2944 16.688 35.2048 17.5847L32.3392 24.7777C30.7798 24.037 29.2008 23.3937 27.6024 22.8479C26.0429 22.3021 24.503 22.0292 22.9825 22.0292ZM28.4211 64.1345C28.4211 65.577 28.1482 66.8051 27.6024 67.8187C27.0566 68.8714 26.1404 69.6706 24.8539 70.2164C23.5673 70.7622 21.8129 71.0351 19.5907 71.0351C18.733 71.0351 17.9533 70.9766 17.2515 70.8597C16.5887 70.7427 15.9844 70.6063 15.4386 70.4503V65.655C15.9844 65.8109 16.6472 65.9474 17.4269 66.0643C18.2457 66.1813 18.9474 66.2398 19.5322 66.2398C20.078 66.2398 20.5459 66.1033 20.9357 65.8304C21.3646 65.5965 21.579 65.1482 21.579 64.4854C21.579 63.7836 21.2281 63.1599 20.5264 62.614C19.8246 62.0682 18.5965 61.6589 16.8421 61.386L19.0644 57H24.5615L23.8012 58.7544C24.5809 58.9883 25.3217 59.3392 26.0234 59.807C26.7252 60.3138 27.2905 60.9181 27.7194 61.6199C28.1872 62.3216 28.4211 63.1599 28.4211 64.1345ZM79.2509 36.0643C79.2509 39.3002 78.8415 42.2436 78.0228 44.8947C77.2431 47.5068 76.0345 49.768 74.3971 51.6784C72.7986 53.5887 70.7324 55.0507 68.1982 56.0643C65.7031 57.078 62.7596 57.5848 59.3678 57.5848C55.976 57.5848 53.013 57.078 50.4789 56.0643C47.9838 55.0117 45.9175 53.5497 44.2801 51.6784C42.6816 49.768 41.473 47.4873 40.6543 44.8362C39.8746 42.1852 39.4847 39.2417 39.4847 36.0058C39.4847 31.6783 40.1865 27.9161 41.59 24.7192C43.0325 21.5223 45.2157 19.0467 48.1397 17.2923C51.1027 15.4989 54.8649 14.6023 59.4263 14.6023C63.9487 14.6023 67.6719 15.4989 70.5959 17.2923C73.5199 19.0467 75.6836 21.5418 77.0871 24.7777C78.5296 27.9746 79.2509 31.7368 79.2509 36.0643ZM48.783 36.0643C48.783 38.9883 49.1534 41.5029 49.8941 43.6082C50.6349 45.7134 51.785 47.3314 53.3444 48.462C54.9039 49.5926 56.9117 50.1579 59.3678 50.1579C61.9019 50.1579 63.9292 49.5926 65.4497 48.462C67.0092 47.3314 68.1398 45.7134 68.8415 43.6082C69.5823 41.5029 69.9526 38.9883 69.9526 36.0643C69.9526 31.6588 69.1339 28.2085 67.4965 25.7134C65.8591 23.2183 63.169 21.9707 59.4263 21.9707C56.9312 21.9707 54.9039 22.536 53.3444 23.6666C51.785 24.7972 50.6349 26.4151 49.8941 28.5204C49.1534 30.6257 48.783 33.1403 48.783 36.0643ZM125.795 36.0643C125.795 39.3002 125.385 42.2436 124.567 44.8947C123.787 47.5068 122.578 49.768 120.941 51.6784C119.343 53.5887 117.276 55.0507 114.742 56.0643C112.247 57.078 109.304 57.5848 105.912 57.5848C102.52 57.5848 99.5569 57.078 97.0228 56.0643C94.5276 55.0117 92.4614 53.5497 90.8239 51.6784C89.2255 49.768 88.0169 47.4873 87.1982 44.8362C86.4185 42.1852 86.0286 39.2417 86.0286 36.0058C86.0286 31.6783 86.7304 27.9161 88.1339 24.7192C89.5764 21.5223 91.7596 19.0467 94.6836 17.2923C97.6466 15.4989 101.409 14.6023 105.97 14.6023C110.493 14.6023 114.216 15.4989 117.14 17.2923C120.064 19.0467 122.228 21.5418 123.631 24.7777C125.074 27.9746 125.795 31.7368 125.795 36.0643ZM95.3269 36.0643C95.3269 38.9883 95.6972 41.5029 96.438 43.6082C97.1787 45.7134 98.3288 47.3314 99.8883 48.462C101.448 49.5926 103.456 50.1579 105.912 50.1579C108.446 50.1579 110.473 49.5926 111.994 48.462C113.553 47.3314 114.684 45.7134 115.385 43.6082C116.126 41.5029 116.497 38.9883 116.497 36.0643C116.497 31.6588 115.678 28.2085 114.04 25.7134C112.403 23.2183 109.713 21.9707 105.97 21.9707C103.475 21.9707 101.448 22.536 99.8883 23.6666C98.3288 24.7972 97.1787 26.4151 96.438 28.5204C95.6972 30.6257 95.3269 33.1403 95.3269 36.0643ZM172.339 36.0643C172.339 39.3002 171.929 42.2436 171.111 44.8947C170.331 47.5068 169.122 49.768 167.485 51.6784C165.886 53.5887 163.82 55.0507 161.286 56.0643C158.791 57.078 155.847 57.5848 152.456 57.5848C149.064 57.5848 146.101 57.078 143.567 56.0643C141.071 55.0117 139.005 53.5497 137.368 51.6784C135.769 49.768 134.561 47.4873 133.742 44.8362C132.962 42.1852 132.572 39.2417 132.572 36.0058C132.572 31.6783 133.274 27.9161 134.678 24.7192C136.12 21.5223 138.303 19.0467 141.227 17.2923C144.19 15.4989 147.953 14.6023 152.514 14.6023C157.036 14.6023 160.76 15.4989 163.684 17.2923C166.608 19.0467 168.771 21.5418 170.175 24.7777C171.617 27.9746 172.339 31.7368 172.339 36.0643ZM141.871 36.0643C141.871 38.9883 142.241 41.5029 142.982 43.6082C143.723 45.7134 144.873 47.3314 146.432 48.462C147.992 49.5926 149.999 50.1579 152.456 50.1579C154.99 50.1579 157.017 49.5926 158.537 48.462C160.097 47.3314 161.227 45.7134 161.929 43.6082C162.67 41.5029 163.04 38.9883 163.04 36.0643C163.04 31.6588 162.222 28.2085 160.584 25.7134C158.947 23.2183 156.257 21.9707 152.514 21.9707C150.019 21.9707 147.992 22.536 146.432 23.6666C144.873 24.7972 143.723 26.4151 142.982 28.5204C142.241 30.6257 141.871 33.1403 141.871 36.0643ZM214.555 57H204.496L193.561 39.3976L189.818 42.0877V57H180.988V15.2455H189.818V34.3684C190.403 33.5497 190.988 32.7309 191.572 31.9122C192.157 31.0935 192.742 30.2748 193.327 29.4561L204.613 15.2455H214.438L199.877 33.7251L214.555 57ZM268.989 42.2631C268.989 45.1481 268.346 47.7602 267.06 50.0994C265.812 52.3996 263.902 54.232 261.329 55.5965C258.795 56.922 255.578 57.5848 251.68 57.5848C246.143 57.5848 241.933 56.1813 239.048 53.3743C236.163 50.5283 234.72 46.7856 234.72 42.1462V15.2455H243.551V40.8011C243.551 44.2319 244.253 46.6491 245.656 48.0526C247.06 49.4561 249.145 50.1579 251.913 50.1579C253.863 50.1579 255.442 49.8265 256.65 49.1637C257.859 48.501 258.736 47.4678 259.282 46.0643C259.867 44.6608 260.159 42.8869 260.159 40.7427V15.2455H268.989V42.2631ZM296.935 22.0292C295.258 22.0292 293.757 22.3606 292.432 23.0233C291.145 23.6861 290.053 24.6413 289.157 25.8888C288.26 27.0974 287.578 28.5789 287.11 30.3333C286.681 32.0877 286.467 34.0565 286.467 36.2397C286.467 39.2027 286.818 41.7368 287.519 43.8421C288.26 45.9084 289.41 47.4873 290.97 48.5789C292.529 49.6705 294.517 50.2164 296.935 50.2164C298.65 50.2164 300.346 50.0214 302.022 49.6316C303.738 49.2417 305.59 48.6959 307.578 47.9941V55.421C305.745 56.1618 303.933 56.7076 302.139 57.0585C300.346 57.4094 298.338 57.5848 296.116 57.5848C291.827 57.5848 288.28 56.7076 285.473 54.9532C282.705 53.1598 280.658 50.6647 279.332 47.4678C278.007 44.2319 277.344 40.4698 277.344 36.1812C277.344 33.0233 277.773 30.1383 278.63 27.5263C279.488 24.8752 280.736 22.5945 282.373 20.6841C284.05 18.7738 286.096 17.2923 288.513 16.2397C290.97 15.187 293.777 14.6607 296.935 14.6607C299.001 14.6607 301.067 14.9336 303.133 15.4794C305.239 15.9863 307.246 16.688 309.157 17.5847L306.291 24.7777C304.732 24.037 303.153 23.3937 301.554 22.8479C299.995 22.3021 298.455 22.0292 296.935 22.0292ZM350.427 42.2631C350.427 45.1481 349.784 47.7602 348.497 50.0994C347.25 52.3996 345.339 54.232 342.766 55.5965C340.232 56.922 337.016 57.5848 333.117 57.5848C327.581 57.5848 323.37 56.1813 320.485 53.3743C317.6 50.5283 316.158 46.7856 316.158 42.1462V15.2455H324.988V40.8011C324.988 44.2319 325.69 46.6491 327.094 48.0526C328.497 49.4561 330.583 50.1579 333.351 50.1579C335.3 50.1579 336.879 49.8265 338.088 49.1637C339.296 48.501 340.174 47.4678 340.719 46.0643C341.304 44.6608 341.597 42.8869 341.597 40.7427V15.2455H350.427V42.2631ZM387.846 57H356.793V51.269L376.793 22.5555H357.319V15.2455H387.319V20.9765L367.319 49.69H387.846V57ZM418.423 57H409.709V15.2455H433.628V22.497H418.423V33.2573H432.575V40.5087H418.423V57ZM457.419 57H438.413V51.9707L443.501 49.6316V22.614L438.413 20.2748V15.2455H457.419V20.2748L452.331 22.614V49.6316L457.419 51.9707V57ZM447.945 2.73088C449.232 2.73088 450.343 3.04277 451.278 3.66655C452.214 4.25135 452.682 5.36247 452.682 6.9999C452.682 8.59834 452.214 9.70945 451.278 10.3332C450.343 10.957 449.232 11.2689 447.945 11.2689C446.619 11.2689 445.489 10.957 444.553 10.3332C443.656 9.70945 443.208 8.59834 443.208 6.9999C443.208 5.36247 443.656 4.25135 444.553 3.66655C445.489 3.04277 446.619 2.73088 447.945 2.73088ZM477.517 32.4385L486.23 15.2455H495.762L481.903 40.7427V57H473.131V41.0351L459.271 15.2455H468.862L477.517 32.4385ZM523.099 57L520.058 47.0585H504.853L501.812 57H492.28L507.017 15.0701H517.836L532.631 57H523.099ZM514.912 29.9239C514.717 29.2612 514.463 28.4229 514.151 27.4093C513.839 26.3956 513.528 25.3625 513.216 24.3099C512.904 23.2572 512.65 22.3411 512.455 21.5613C512.26 22.3411 511.988 23.3157 511.637 24.4853C511.325 25.6159 511.013 26.7075 510.701 27.7602C510.428 28.7738 510.214 29.4951 510.058 29.9239L507.075 39.6315H517.952L514.912 29.9239ZM549.889 57H541.059V22.614H529.714V15.2455H561.234V22.614H549.889V57ZM589.117 57L586.076 47.0585H570.871L567.83 57H558.298L573.035 15.0701H583.854L598.649 57H589.117ZM580.93 29.9239C580.735 29.2612 580.481 28.4229 580.169 27.4093C579.857 26.3956 579.546 25.3625 579.234 24.3099C578.922 23.2572 578.668 22.3411 578.473 21.5613C578.278 22.3411 578.006 23.3157 577.655 24.4853C577.343 25.6159 577.031 26.7075 576.719 27.7602C576.446 28.7738 576.232 29.4951 576.076 29.9239L573.093 39.6315H583.97L580.93 29.9239ZM975.837 32.4385L984.55 15.2455H994.082L980.223 40.7427V57H971.451V41.0351L957.591 15.2455H967.182L975.837 32.4385ZM1021.42 57L1018.38 47.0585H1003.17L1000.13 57H990.6L1005.34 15.0701H1016.16L1030.95 57H1021.42ZM1013.23 29.9239C1013.04 29.2612 1012.78 28.4229 1012.47 27.4093C1012.16 26.3956 1011.85 25.3625 1011.54 24.3099C1011.22 23.2572 1010.97 22.3411 1010.78 21.5613C1010.58 22.3411 1010.31 23.3157 1009.96 24.4853C1009.65 25.6159 1009.33 26.7075 1009.02 27.7602C1008.75 28.7738 1008.53 29.4951 1008.38 29.9239L1005.4 39.6315H1016.27L1013.23 29.9239ZM1049.57 15.2455C1054.95 15.2455 1058.87 16.4151 1061.33 18.7543C1063.82 21.0545 1065.07 24.2319 1065.07 28.2865C1065.07 30.1189 1064.8 31.8732 1064.25 33.5497C1063.71 35.1871 1062.79 36.6686 1061.5 37.9941C1060.26 39.2807 1058.6 40.2943 1056.53 41.0351C1054.47 41.7758 1051.91 42.1462 1048.87 42.1462H1045.07V57H1036.24V15.2455H1049.57ZM1049.11 22.497H1045.07V34.8947H1047.99C1049.67 34.8947 1051.11 34.6803 1052.32 34.2514C1053.53 33.8226 1054.47 33.1403 1055.13 32.2046C1055.79 31.269 1056.12 30.0604 1056.12 28.5789C1056.12 26.5126 1055.56 24.9921 1054.43 24.0175C1053.3 23.0038 1051.52 22.497 1049.11 22.497ZM1088.57 57H1069.57V51.9707L1074.66 49.6316V22.614L1069.57 20.2748V15.2455H1088.57V20.2748L1083.49 22.614V49.6316L1088.57 51.9707V57ZM1095.69 57V15.2455H1104.52V49.69H1121.48V57H1095.69ZM1144.37 57H1125.36V51.9707L1130.45 49.6316V22.614L1125.36 20.2748V15.2455H1144.37V20.2748L1139.28 22.614V49.6316L1144.37 51.9707V57ZM1163.65 15.2455C1167.43 15.2455 1170.55 15.7134 1173.01 16.649C1175.46 17.5457 1177.29 18.9297 1178.5 20.8011C1179.71 22.6335 1180.32 24.9531 1180.32 27.7602C1180.32 29.6705 1179.95 31.3469 1179.2 32.7894C1178.5 34.1929 1177.55 35.4015 1176.34 36.4152C1175.17 37.3898 1173.9 38.189 1172.54 38.8128L1184.82 57H1174.99L1165.05 40.9766H1160.32V57H1151.49V15.2455H1163.65ZM1163.01 22.497H1160.32V33.7836H1163.18C1165.13 33.7836 1166.71 33.5692 1167.92 33.1403C1169.13 32.7114 1170 32.0682 1170.55 31.2105C1171.1 30.3138 1171.37 29.2417 1171.37 27.9941C1171.37 26.6686 1171.06 25.6159 1170.43 24.8362C1169.85 24.0175 1168.93 23.4327 1167.68 23.0818C1166.48 22.6919 1164.92 22.497 1163.01 22.497Z" fill="#717171"/>
<path d="M671.885 14.16L660.965 57H650.645L644.825 34.5C644.705 34.06 644.545 33.4 644.345 32.52C644.185 31.64 643.985 30.68 643.745 29.64C643.545 28.6 643.365 27.62 643.205 26.7C643.045 25.74 642.925 25 642.845 24.48C642.805 25 642.685 25.74 642.485 26.7C642.325 27.62 642.145 28.6 641.945 29.64C641.745 30.64 641.545 31.6 641.345 32.52C641.145 33.4 640.985 34.08 640.865 34.56L635.105 57H624.785L613.865 14.16H622.805L628.265 37.56C628.425 38.24 628.605 39.08 628.805 40.08C629.005 41.04 629.205 42.06 629.405 43.14C629.605 44.18 629.785 45.2 629.945 46.2C630.145 47.2 630.285 48.06 630.365 48.78C630.445 48.02 630.565 47.16 630.725 46.2C630.885 45.2 631.065 44.2 631.265 43.2C631.465 42.16 631.645 41.2 631.805 40.32C632.005 39.4 632.185 38.68 632.345 38.16L638.585 14.16H647.165L653.405 38.16C653.525 38.68 653.685 39.4 653.885 40.32C654.085 41.2 654.285 42.16 654.485 43.2C654.685 44.24 654.865 45.26 655.025 46.26C655.185 47.22 655.305 48.06 655.385 48.78C655.505 47.78 655.685 46.6 655.925 45.24C656.165 43.84 656.425 42.44 656.705 41.04C657.025 39.64 657.285 38.48 657.485 37.56L662.945 14.16H671.885ZM701.933 57H677.273V14.16H701.933V21.6H686.333V31.02H700.853V38.46H686.333V49.5H701.933V57ZM724.167 14.16C727.967 14.16 731.147 14.52 733.707 15.24C736.307 15.92 738.247 17.06 739.527 18.66C740.847 20.22 741.507 22.34 741.507 25.02C741.507 26.62 741.247 28.08 740.727 29.4C740.207 30.72 739.447 31.8 738.447 32.64C737.487 33.48 736.307 34.02 734.907 34.26V34.56C736.347 34.84 737.647 35.34 738.807 36.06C739.967 36.78 740.887 37.82 741.567 39.18C742.247 40.54 742.587 42.34 742.587 44.58C742.587 47.18 741.947 49.42 740.667 51.3C739.427 53.14 737.627 54.56 735.267 55.56C732.907 56.52 730.107 57 726.867 57H710.847V14.16H724.167ZM725.187 31.14C727.827 31.14 729.647 30.72 730.647 29.88C731.687 29.04 732.207 27.82 732.207 26.22C732.207 24.58 731.607 23.4 730.407 22.68C729.207 21.96 727.307 21.6 724.707 21.6H719.907V31.14H725.187ZM719.907 38.34V49.5H725.847C728.567 49.5 730.467 48.98 731.547 47.94C732.627 46.86 733.167 45.44 733.167 43.68C733.167 42.6 732.927 41.66 732.447 40.86C732.007 40.06 731.227 39.44 730.107 39C728.987 38.56 727.467 38.34 725.547 38.34H719.907ZM792.006 45.12C792.006 47.64 791.386 49.84 790.146 51.72C788.906 53.6 787.106 55.06 784.746 56.1C782.426 57.1 779.586 57.6 776.226 57.6C774.746 57.6 773.286 57.5 771.846 57.3C770.446 57.1 769.086 56.82 767.766 56.46C766.486 56.06 765.266 55.58 764.106 55.02V46.56C766.146 47.44 768.246 48.26 770.406 49.02C772.606 49.74 774.786 50.1 776.946 50.1C778.426 50.1 779.606 49.9 780.486 49.5C781.406 49.1 782.066 48.56 782.466 47.88C782.906 47.2 783.126 46.42 783.126 45.54C783.126 44.46 782.746 43.54 781.986 42.78C781.266 42.02 780.286 41.32 779.046 40.68C777.806 40 776.386 39.28 774.786 38.52C773.786 38.04 772.706 37.48 771.546 36.84C770.386 36.16 769.266 35.34 768.186 34.38C767.146 33.38 766.286 32.18 765.606 30.78C764.926 29.38 764.586 27.7 764.586 25.74C764.586 23.18 765.166 21 766.326 19.2C767.526 17.36 769.206 15.96 771.366 15C773.566 14.04 776.146 13.56 779.106 13.56C781.346 13.56 783.466 13.82 785.466 14.34C787.506 14.86 789.626 15.6 791.826 16.56L788.886 23.64C786.926 22.84 785.166 22.22 783.606 21.78C782.046 21.34 780.446 21.12 778.806 21.12C777.686 21.12 776.726 21.3 775.926 21.66C775.126 22.02 774.506 22.52 774.066 23.16C773.666 23.8 773.466 24.56 773.466 25.44C773.466 26.44 773.766 27.3 774.366 28.02C774.966 28.7 775.866 29.36 777.066 30C778.266 30.64 779.766 31.4 781.566 32.28C783.766 33.32 785.626 34.4 787.146 35.52C788.706 36.64 789.906 37.96 790.746 39.48C791.586 41 792.006 42.88 792.006 45.12ZM815.812 57H796.312V51.84L801.532 49.44V21.72L796.312 19.32V14.16H815.812V19.32L810.592 21.72V49.44L815.812 51.84V57ZM806.092 1.32C807.412 1.32 808.552 1.64 809.512 2.28C810.472 2.88 810.952 4.02 810.952 5.7C810.952 7.34 810.472 8.48 809.512 9.12C808.552 9.76 807.412 10.08 806.092 10.08C804.732 10.08 803.572 9.76 802.612 9.12C801.692 8.48 801.232 7.34 801.232 5.7C801.232 4.02 801.692 2.88 802.612 2.28C803.572 1.64 804.732 1.32 806.092 1.32ZM839.613 57H830.553V21.72H818.913V14.16H851.253V21.72H839.613V57ZM882.519 57H857.859V14.16H882.519V21.6H866.919V31.02H881.439V38.46H866.919V49.5H882.519V57ZM916.693 45.12C916.693 47.64 916.073 49.84 914.833 51.72C913.593 53.6 911.793 55.06 909.433 56.1C907.113 57.1 904.273 57.6 900.913 57.6C899.433 57.6 897.973 57.5 896.533 57.3C895.133 57.1 893.773 56.82 892.453 56.46C891.173 56.06 889.953 55.58 888.793 55.02V46.56C890.833 47.44 892.933 48.26 895.093 49.02C897.293 49.74 899.473 50.1 901.633 50.1C903.113 50.1 904.293 49.9 905.173 49.5C906.093 49.1 906.753 48.56 907.153 47.88C907.593 47.2 907.813 46.42 907.813 45.54C907.813 44.46 907.433 43.54 906.673 42.78C905.953 42.02 904.973 41.32 903.733 40.68C902.493 40 901.073 39.28 899.473 38.52C898.473 38.04 897.393 37.48 896.233 36.84C895.073 36.16 893.953 35.34 892.873 34.38C891.833 33.38 890.973 32.18 890.293 30.78C889.613 29.38 889.273 27.7 889.273 25.74C889.273 23.18 889.853 21 891.013 19.2C892.213 17.36 893.893 15.96 896.053 15C898.253 14.04 900.833 13.56 903.793 13.56C906.033 13.56 908.153 13.82 910.153 14.34C912.193 14.86 914.313 15.6 916.513 16.56L913.573 23.64C911.613 22.84 909.853 22.22 908.293 21.78C906.733 21.34 905.133 21.12 903.493 21.12C902.373 21.12 901.413 21.3 900.613 21.66C899.813 22.02 899.193 22.52 898.753 23.16C898.353 23.8 898.153 24.56 898.153 25.44C898.153 26.44 898.453 27.3 899.053 28.02C899.653 28.7 900.553 29.36 901.753 30C902.953 30.64 904.453 31.4 906.253 32.28C908.453 33.32 910.313 34.4 911.833 35.52C913.393 36.64 914.593 37.96 915.433 39.48C916.273 41 916.693 42.88 916.693 45.12ZM940.5 57H921V51.84L926.22 49.44V21.72L921 19.32V14.16H940.5V19.32L935.28 21.72V49.44L940.5 51.84V57ZM930.78 1.32C932.1 1.32 933.24 1.64 934.2 2.28C935.16 2.88 935.64 4.02 935.64 5.7C935.64 7.34 935.16 8.48 934.2 9.12C933.24 9.76 932.1 10.08 930.78 10.08C929.42 10.08 928.26 9.76 927.3 9.12C926.38 8.48 925.92 7.34 925.92 5.7C925.92 4.02 926.38 2.88 927.3 2.28C928.26 1.64 929.42 1.32 930.78 1.32Z" fill="#54ADFF"/>
</svg>
